<svg width="1440" height="546" viewBox="0 0 1440 546" fill="none" xmlns="http://www.w3.org/2000/svg">
<g clip-path="url(#clip0_565_9535)">
<g filter="url(#filter0_f_565_9535)">
<ellipse cx="720.5" cy="1315.5" rx="1915.5" ry="1176.5" fill="white"/>
</g>
<ellipse cx="720.5" cy="1810.5" rx="2736.5" ry="1680.5" fill="black"/>
<mask id="mask0_565_9535" style="mask-type:alpha" maskUnits="userSpaceOnUse" x="-2016" y="130" width="5473" height="3361">
<ellipse cx="720.5" cy="1810.5" rx="2736.5" ry="1680.5" fill="black"/>
</mask>
<g mask="url(#mask0_565_9535)">
<g filter="url(#filter1_f_565_9535)">
<path d="M1421.68 91.0615C1433.57 118.562 1457.61 174.479 1458.56 178.146L1475.05 178.146L1500.74 -27.4167C1500.74 -27.4167 1065.94 106.456 789.649 101.756C493.413 96.717 37.9205 -60.9398 37.9205 -60.9398L10.8454 200.882L10.8454 247.53L134.172 109.395L115.364 316.391L55.038 513.499L212.107 129.257L242.156 63.1596L262.717 513.499L306.538 456.206L424.582 114.743L449.746 129.257L424.582 513.499L449.746 463.845L493.625 114.743L500.764 129.257L500.764 483.707L613.796 136.132L624.504 493.637L681.615 145.299L693.513 136.132L693.513 589.613L726.828 488.29L762.522 136.132L800.596 114.743L754.193 456.206L818.443 463.845L848.188 155.229L842.239 463.845L871.984 448.567L906.489 145.299L931.475 456.206L962.41 136.132L976.687 411.136L1012.38 155.229L1012.38 463.845L1039.14 530.272L1054.02 129.257L1080.2 101.756L1108.76 402.733L1155.16 402.733L1123.03 109.395L1184.9 390.511L1173.01 114.743L1240.82 390.511L1208.7 101.756L1308.64 380.58L1249.15 109.395L1281.28 114.743L1381.47 402.733L1371.7 330.654L1349.1 101.756L1371.7 95.6449L1468.08 330.654L1468.08 284.328L1407.4 91.0615L1421.68 91.0615Z" fill="url(#paint0_linear_565_9535)" fill-opacity="0.2"/>
</g>
<g filter="url(#filter2_f_565_9535)">
<path d="M1639.38 258.973C1638.31 253.262 1611.3 166.18 1597.93 123.352L1581.88 123.352L1650.08 424.334L1690.2 899.766L1541.76 130.49L1516.35 140.008L1581.88 899.766L1592.86 1012.02L1440.12 160.232L1404.01 151.904L1511 977.518L1358.55 140.008L1434.77 992.984L1318.43 160.232L1371.92 992.984L1262.26 151.904L1338.49 1012.02L1214.12 140.008L1184.7 182.835L1167.97 1000.07L1152.43 884.723L1152.43 211.387L1097.77 814.534L1081.72 193.542L1046.95 884.723L1018.87 207.818L980.087 872.827L968.849 1000.07L953.341 223.283L919.908 896.62L919.908 1058.01L899.848 160.232L857.054 193.542L816.935 934.689L779.49 1092.48L751.265 193.542L737.892 207.818L701.926 943.016L652.293 193.542L562.845 1058.01L562.845 182.835L540.844 132.647L505.502 703.903L468.174 1001.64L468.174 151.904L414.876 108.091L362.456 1000.07L313.202 1089.29L272.177 79.8997L238.402 182.835L148.004 699.405L147.58 782.329L79.7756 1089.29L148.004 699.405L150.805 151.904L30.1045 675.089L30.1044 602.443L-0.000342272 -30.0064C-0.000342272 -30.0064 397.409 140.008 887.544 140.008C1198.11 140.008 1703.62 -34.6002 1703.62 -34.6002L1657.92 258.973L1639.38 258.973Z" fill="url(#paint1_linear_565_9535)" fill-opacity="0.2"/>
</g>
<g filter="url(#filter3_f_565_9535)">
<path d="M1458.56 153.909C1457.61 150.243 1433.57 41.1713 1421.67 13.6709L1407.4 13.6709L1408.59 266.879L1408.59 580.869L1371.7 71.408L1301.6 105.02L1306.58 328.009L1321.98 652.948L1312.21 580.869L1306.58 328.009L1294.72 77.8703L1249.15 85.1583L1249.15 630.795L1208.7 77.5193L1181.33 640.725L1173 90.5056L1135.58 666.987L1147.95 90.5056L1095.67 138.722L1095.67 652.948L1080.2 77.5193L1054.02 105.02L1075.92 563.356L1025.31 123.353L1005.38 509.113L962.408 111.895L962.409 730.604L950.893 121.062L881.649 111.895L861.984 465.271L861.984 629.783L847.585 45.7149C844.096 45.8027 840.625 45.8832 837.172 45.9562L827.833 77.8704L818.442 563.356L818.442 666.987L772.909 46.4282C763.618 46.3913 754.213 46.327 744.71 46.237L705.174 291.736L705.174 580.869L693.512 689.124L668.401 111.895L656.502 121.062L624.503 593.148L616.545 43.7462C606.478 43.4646 596.38 43.1645 586.265 42.8477L528.095 123.353L500.763 666.987L500.763 105.02L481.189 72.7929L435.169 374.459L416.534 630.795L443.002 72.2553L421.163 36.4181C400.447 35.4718 380.026 34.4922 360.041 33.4948L312.635 687.076L302.624 563.356L288.354 29.753C276.824 29.1255 265.526 28.4986 254.493 27.8761L175.02 90.5057L70.9761 687.076L105.231 465.271L134.171 85.1584L26.7835 421.107L26.7835 374.459L29.6382 13.671C29.6382 13.671 123.253 20.4698 254.493 27.8761L287.606 1.78111L288.354 29.753C311.409 31.0076 335.393 32.2647 360.041 33.4948L366.353 -53.524L421.163 36.4181C475.033 38.8788 530.897 41.1139 586.265 42.8477L615.937 1.78108L616.545 43.7462C660.282 44.9699 703.419 45.846 744.71 46.237L764.073 -73.999L772.909 46.4282C779.049 46.4526 785.139 46.465 791.176 46.465C806.052 46.465 821.416 46.2891 837.172 45.9562L846.781 13.1215L847.585 45.7149C1123.93 38.7589 1512.07 -14.2311 1512.07 -14.2311L1475.05 153.909L1458.56 153.909Z" fill="url(#paint2_linear_565_9535)" fill-opacity="0.1"/>
</g>
</g>
</g>
<defs>
<filter id="filter0_f_565_9535" x="-1315" y="19" width="4071" height="2593" filterUnits="userSpaceOnUse" color-interpolation-filters="sRGB">
<feFlood flood-opacity="0" result="BackgroundImageFix"/>
<feBlend mode="normal" in="SourceGraphic" in2="BackgroundImageFix" result="shape"/>
<feGaussianBlur stdDeviation="60" result="effect1_foregroundBlur_565_9535"/>
</filter>
<filter id="filter1_f_565_9535" x="-61.4543" y="-133.24" width="1634.5" height="795.153" filterUnits="userSpaceOnUse" color-interpolation-filters="sRGB">
<feFlood flood-opacity="0" result="BackgroundImageFix"/>
<feBlend mode="normal" in="SourceGraphic" in2="BackgroundImageFix" result="shape"/>
<feGaussianBlur stdDeviation="36.15" result="effect1_foregroundBlur_565_9535"/>
</filter>
<filter id="filter2_f_565_9535" x="-103" y="-137.6" width="1909.62" height="1333.08" filterUnits="userSpaceOnUse" color-interpolation-filters="sRGB">
<feFlood flood-opacity="0" result="BackgroundImageFix"/>
<feBlend mode="normal" in="SourceGraphic" in2="BackgroundImageFix" result="shape"/>
<feGaussianBlur stdDeviation="51.5" result="effect1_foregroundBlur_565_9535"/>
</filter>
<filter id="filter3_f_565_9535" x="-3.2168" y="-103.999" width="1545.29" height="864.603" filterUnits="userSpaceOnUse" color-interpolation-filters="sRGB">
<feFlood flood-opacity="0" result="BackgroundImageFix"/>
<feBlend mode="normal" in="SourceGraphic" in2="BackgroundImageFix" result="shape"/>
<feGaussianBlur stdDeviation="15" result="effect1_foregroundBlur_565_9535"/>
</filter>
<linearGradient id="paint0_linear_565_9535" x1="688.678" y1="7.97573" x2="701.537" y2="536.998" gradientUnits="userSpaceOnUse">
<stop stop-color="#D9D9D9"/>
<stop offset="1" stop-opacity="0"/>
</linearGradient>
<linearGradient id="paint1_linear_565_9535" x1="774.055" y1="-6.04004" x2="801.789" y2="817.379" gradientUnits="userSpaceOnUse">
<stop stop-color="#D9D9D9"/>
<stop offset="1" stop-opacity="0"/>
</linearGradient>
<linearGradient id="paint2_linear_565_9535" x1="688.677" y1="-16.2608" x2="701.536" y2="512.761" gradientUnits="userSpaceOnUse">
<stop stop-color="#D9D9D9"/>
<stop offset="1" stop-color="#D9D9D9" stop-opacity="0"/>
</linearGradient>
<clipPath id="clip0_565_9535">
<rect width="1440" height="546" fill="white"/>
</clipPath>
</defs>
</svg>
