<svg
  xmlns="http://www.w3.org/2000/svg"
  width="358"
  height="150"
  fill="none"
  viewBox="0 0 358 150"
>
  <g clip-path="url(#a)">
    <g filter="url(#b)">
      <rect
        width="82.17"
        height="82.17"
        x="134.64"
        y="28.02"
        fill="url(#c)"
        rx="16"
      />
      <rect
        width="81.66"
        height="81.66"
        x="134.9"
        y="28.27"
        stroke="url(#d)"
        stroke-width=".52"
        rx="15.74"
      />
      <g clip-path="url(#e)">
        <path
          fill="#383838"
          stroke="#3D3D3D"
          d="M175.76 45.06a9.93 9.93 0 0 1 1.64.46l.03.01 17.11 8.24.03.02.12.06a8.87 8.87 0 0 1 .9.58l.03.04.02.01.01.03.03.05.06.18a6.2 6.2 0 0 1 .24.92l.02.14.01.04v.04l4.15 18.16v.02l.01.02.01.04a4.34 4.34 0 0 1 .13.54c.06.36.1.8.06 1.23a1.62 1.62 0 0 1-.13.25 6.4 6.4 0 0 1-.67.96l-.03.03v.01L187.44 92.3l-.01.01-.01.02-.02.02-.04.07a4.84 4.84 0 0 1-.59.64l-.12.03a3.37 3.37 0 0 1-.72.03H165.64a2.79 2.79 0 0 1-.66 0l-.05-.01-.03-.03-.08-.04-.02-.02a2.33 2.33 0 0 1-.42-.45v-.01l-.02-.01-12.7-15.8-.31-.5-.24-.48-.03-.06a.84.84 0 0 1-.02-.25l.01-.14v-.04l.14-.59 4.44-19.44v-.02l.03-.09a8.36 8.36 0 0 1 .24-.7l.03-.03.03-.03.11-.09a4.83 4.83 0 0 1 .6-.36l.08-.05.03-.01 17.4-8.4h.03a15.34 15.34 0 0 1 1.53-.41Z"
        />
        <path
          fill="#F2F2F2"
          d="M193.15 72.93c-.93-.21-1.1-.04-2.33-.27-.63-.09-1.2-.4-1.6-.88h-.02c.43-3.23-.32-6.5-2.1-9.22l.02-.02c.21-.58.58-1.1 1.06-1.48 1.01-.75 1.24-.67 1.98-1.26.57-.46.75-1.17.4-1.61-.35-.44-1.09-.42-1.66.04-.73.58-.7.82-1.66 1.65-.46.43-1.06.69-1.7.7v.01a13.55 13.55 0 0 0-8.56-4.11v-.06a3.46 3.46 0 0 1-.5-1.76c.05-1.26.25-1.39.25-2.33 0-.73-.45-1.32-1-1.32-.56 0-1.01.59-1.01 1.32 0 .94.2 1.07.25 2.33.02.44 0 1.13-.5 1.76v.06c-3.3.3-6.36 1.8-8.62 4.2a3.43 3.43 0 0 1-1.61-.7c-.96-.82-.92-1.06-1.67-1.64-.57-.46-1.3-.48-1.66-.05-.34.45-.16 1.17.41 1.63.74.59.97.5 1.98 1.26.34.25.85.68 1.04 1.41a13.52 13.52 0 0 0-2.08 9.27c-.43.4-.95.68-1.52.81-1.24.23-1.4.06-2.32.27-.72.15-1.2.72-1.07 1.27.13.54.8.85 1.51.68.92-.2 1-.43 2.22-.76a2.58 2.58 0 0 1 1.7.04 13.63 13.63 0 0 0 5.93 7.48l-.07.13c.06.61-.05 1.24-.31 1.8-.59 1.12-.83 1.13-1.24 1.99-.31.66-.17 1.38.34 1.63.5.24 1.16-.1 1.48-.76.4-.85.28-1.05.78-2.2.22-.6.66-1.08 1.22-1.37l.06-.13a13.63 13.63 0 0 0 9.68-.07c.43.32.78.74 1.02 1.23.5 1.16.38 1.36.78 2.2.32.66.98 1 1.48.76s.65-.97.34-1.63c-.41-.84-.65-.88-1.24-1.99a2.61 2.61 0 0 1-.35-1.56 13.63 13.63 0 0 0 5.96-7.46h.01c.6-.2 1.22-.23 1.83-.1 1.22.33 1.3.55 2.22.76.7.17 1.38-.14 1.5-.68.13-.55-.35-1.11-1.05-1.27Zm-9.8-10.6c-1.9 1.47-4.06 2.93-5.2 3.41a5 5 0 0 0-.58-.28c-.25-.97-.5-3.7-.57-6.2a10.8 10.8 0 0 1 6.36 3.08Zm-6.83 6.02 1.03 1.23-.31 1.58-1.44.73-1.46-.66-.4-1.56.98-1.28 1.6-.04Zm-2.05-9.1c-.05 2.43-.26 5.04-.59 6.2-.23.1-.46.21-.67.34a44.3 44.3 0 0 1-5.15-3.41 10.77 10.77 0 0 1 6.41-3.12Zm-9.57 10.76c0-2 .55-3.96 1.6-5.67a33.88 33.88 0 0 1 4.5 4.32c-.05.2-.1.4-.13.6-1.03.49-3.57 1.3-5.9 1.9a11.2 11.2 0 0 1-.07-1.15Zm5 9.12a10.85 10.85 0 0 1-4.38-5.5c2.31-.49 4.86-.87 6.16-.85.11.17.24.33.37.49-.12.87-1.1 3.5-2.15 5.86Zm5.82 1.7c-1.2 0-2.4-.2-3.54-.6 1.13-2.2 2.46-4.49 3.25-5.32.25.01.51 0 .77-.02a47.2 47.2 0 0 1 3.13 5.32c-1.16.41-2.38.62-3.6.62Zm5.86-1.72a36.35 36.35 0 0 1-2.2-5.82c.14-.16.27-.33.39-.5 1.05-.02 3.73.35 6.16.82a10.8 10.8 0 0 1-4.35 5.5Zm4.9-7.95c-2.33-.59-4.82-1.36-5.9-1.95-.04-.2-.08-.4-.14-.58.62-.83 2.6-2.7 4.5-4.32a10.77 10.77 0 0 1 1.54 6.85Z"
        />
      </g>
    </g>
    <path
      stroke="url(#f)"
      d="m-12.76-32.7 10.62 18.4h134.6l22.07 22.05v20.17"
    />
    <path stroke="url(#g)" d="M-6.52-39.7 4.11-21.3h133l29.06 29.05v20.17" />
    <path stroke="url(#h)" d="m73.63-46.84 10.62 18.4h63.13l29.05 36.2v20.17" />
    <path stroke="url(#i)" d="M157.18-45.36v16.92l29.05 36.2v20.17" />
    <path stroke="url(#j)" d="M211.81-31.03v27.39l-14.73 11.4v20.17" />
    <path
      stroke="url(#k)"
      d="m357.53-126.65-18.4 10.62v134.6l-70.47 35.04h-51.84"
    />
    <path
      stroke="url(#l)"
      d="m364.52-120.89-18.4 10.62V22.75l-77.46 42.02h-51.84"
    />
    <path
      stroke="url(#m)"
      d="m371.66-40.26-18.4 10.62V33.5l-84.6 42.02H216.8"
    />
    <path stroke="url(#n)" d="M370.18 137.64h-16.92l-84.6-42.02H216.8" />
    <path stroke="url(#p)" d="M-54.24 13.56h67.9L82.8 53.6h51.84" />
    <path stroke="url(#q)" d="M-41.27 22.75h46.6l77.46 42.02h51.84" />
    <path stroke="url(#s)" d="M34.11 166.84v-55.71l25.8-15.51h74.73" />
    <path
      stroke="url(#t)"
      d="m-15.53 179.1 40.63-40.64V104.1l31.14-17.92h78.4"
    />
    <path
      stroke="url(#u)"
      d="m364.52 169.76-10.62-18.4H219.29l-22.06-22.06v-19.1"
    />
    <path
      stroke="url(#v)"
      d="m280.34 177.82-10.63-18.4h-54.59l-29.05-29.05V110.2"
    />
    <path
      stroke="url(#w)"
      d="m283.54 186.96-10.62-18.4H213l-36.53-38.2V110.2"
    />
    <path stroke="url(#x)" d="M148.12 164.6v-16.93l10.16-17.3v-20.18" />
    <path
      fill="#27272A"
      d="M156.73 110.2h3.1v10.47h-3.1zM166.03 110.2h3.1v10.47h-3.1zM174.93 110.2h3.1v10.47h-3.1zM184.52 110.19h3.1v10.47h-3.1zM195.68 110.19h3.1v10.47h-3.1zM152.74 17.63h3.33V28.1h-3.33zM164.5 17.63h3.33V28.1h-3.33zM174.77 17.63h3.33V28.1h-3.33zM184.36 17.63h3.33V28.1h-3.33zM195.41 17.63h3.33V28.1h-3.33zM227.28 52.1v3.33h-10.47V52.1zM227.29 63.16v3.33h-10.47v-3.33zM227.29 73.83v3.33h-10.47v-3.33zM227.29 84.5v3.33h-10.47V84.5zM227.3 93.91v3.33h-10.47v-3.33zM134.62 52.1v3.33h-10.47V52.1zM134.63 63.16v3.33h-10.47v-3.33zM134.62 73.3v3.32h-10.47V73.3zM134.63 84.5v3.33h-10.47V84.5zM134.64 93.91v3.33h-10.47v-3.33z"
    />
    <path stroke="url(#A)" d="M28.25 102.54 56.12 86.1h41.92" />
    <path stroke="url(#B)" d="M299.84 60.24 269.22 75.5h-41.93" />
    <path stroke="url(#C)" d="m299.83 110.85-30.62-15.27h-41.92" />
  </g>
  <defs>
    <linearGradient
      id="c"
      x1="175.72"
      x2="175.72"
      y1="28.02"
      y2="110.19"
      gradientUnits="userSpaceOnUse"
    >
      <stop stop-color="#292929" />
      <stop offset="1" stop-color="#191919" />
    </linearGradient>
    <linearGradient
      id="d"
      x1="134.64"
      x2="216.81"
      y1="69.1"
      y2="69.1"
      gradientUnits="userSpaceOnUse"
    >
      <stop stop-color="#fff" />
      <stop offset="1" stop-color="#146DFF" />
    </linearGradient>
    <linearGradient
      id="f"
      x1="70.88"
      x2="70.88"
      y1="-32.71"
      y2="27.92"
      gradientUnits="userSpaceOnUse"
    >
      <stop stop-color="#27272A" stop-opacity="0" />
      <stop offset="1" stop-color="#27272A" />
    </linearGradient>
    <linearGradient
      id="g"
      x1="79.83"
      x2="79.83"
      y1="-39.7"
      y2="27.92"
      gradientUnits="userSpaceOnUse"
    >
      <stop stop-color="#27272A" stop-opacity="0" />
      <stop offset="1" stop-color="#27272A" />
    </linearGradient>
    <linearGradient
      id="h"
      x1="125.03"
      x2="125.03"
      y1="-46.84"
      y2="27.93"
      gradientUnits="userSpaceOnUse"
    >
      <stop stop-color="#27272A" stop-opacity="0" />
      <stop offset="1" stop-color="#27272A" />
    </linearGradient>
    <linearGradient
      id="i"
      x1="171.71"
      x2="171.71"
      y1="-45.36"
      y2="27.93"
      gradientUnits="userSpaceOnUse"
    >
      <stop stop-color="#27272A" stop-opacity="0" />
      <stop offset="1" stop-color="#27272A" />
    </linearGradient>
    <linearGradient
      id="j"
      x1="204.44"
      x2="204.44"
      y1="-31.03"
      y2="27.93"
      gradientUnits="userSpaceOnUse"
    >
      <stop stop-color="#27272A" stop-opacity="0" />
      <stop offset="1" stop-color="#27272A" />
    </linearGradient>
    <linearGradient
      id="k"
      x1="357.53"
      x2="216.82"
      y1="-36.52"
      y2="-36.52"
      gradientUnits="userSpaceOnUse"
    >
      <stop stop-color="#27272A" stop-opacity="0" />
      <stop offset="1" stop-color="#27272A" />
    </linearGradient>
    <linearGradient
      id="l"
      x1="364.52"
      x2="216.82"
      y1="-28.06"
      y2="-28.06"
      gradientUnits="userSpaceOnUse"
    >
      <stop stop-color="#27272A" stop-opacity="0" />
      <stop offset="1" stop-color="#27272A" />
    </linearGradient>
    <linearGradient
      id="m"
      x1="371.66"
      x2="216.81"
      y1="17.63"
      y2="17.63"
      gradientUnits="userSpaceOnUse"
    >
      <stop stop-color="#27272A" stop-opacity="0" />
      <stop offset="1" stop-color="#27272A" />
    </linearGradient>
    <linearGradient
      id="n"
      x1="370.18"
      x2="216.81"
      y1="116.63"
      y2="116.63"
      gradientUnits="userSpaceOnUse"
    >
      <stop stop-color="#27272A" stop-opacity="0" />
      <stop offset="1" stop-color="#27272A" />
    </linearGradient>
    <linearGradient
      id="o"
      x1="370.18"
      x2="216.81"
      y1="86.17"
      y2="86.17"
      gradientUnits="userSpaceOnUse"
    >
      <stop stop-color="#27272A" stop-opacity="0" />
      <stop offset="1" stop-color="#27272A" />
    </linearGradient>
    <linearGradient
      id="p"
      x1="-54.24"
      x2="134.63"
      y1="33.58"
      y2="33.58"
      gradientUnits="userSpaceOnUse"
    >
      <stop stop-color="#27272A" stop-opacity="0" />
      <stop offset="1" stop-color="#27272A" />
    </linearGradient>
    <linearGradient
      id="q"
      x1="-41.27"
      x2="134.63"
      y1="43.76"
      y2="43.76"
      gradientUnits="userSpaceOnUse"
    >
      <stop stop-color="#27272A" stop-opacity="0" />
      <stop offset="1" stop-color="#27272A" />
    </linearGradient>
    <linearGradient
      id="r"
      x1="-53.35"
      x2="134.64"
      y1="75.51"
      y2="75.51"
      gradientUnits="userSpaceOnUse"
    >
      <stop stop-color="#27272A" stop-opacity="0" />
      <stop offset="1" stop-color="#27272A" />
    </linearGradient>
    <linearGradient
      id="s"
      x1="34.11"
      x2="134.64"
      y1="131.23"
      y2="131.23"
      gradientUnits="userSpaceOnUse"
    >
      <stop stop-color="#27272A" stop-opacity="0" />
      <stop offset="1" stop-color="#27272A" />
    </linearGradient>
    <linearGradient
      id="t"
      x1="-15.53"
      x2="134.64"
      y1="132.63"
      y2="132.63"
      gradientUnits="userSpaceOnUse"
    >
      <stop stop-color="#27272A" stop-opacity="0" />
      <stop offset="1" stop-color="#27272A" />
    </linearGradient>
    <linearGradient
      id="u"
      x1="280.87"
      x2="280.87"
      y1="169.76"
      y2="110.2"
      gradientUnits="userSpaceOnUse"
    >
      <stop stop-color="#27272A" stop-opacity="0" />
      <stop offset="1" stop-color="#27272A" />
    </linearGradient>
    <linearGradient
      id="v"
      x1="233.2"
      x2="233.2"
      y1="177.82"
      y2="110.2"
      gradientUnits="userSpaceOnUse"
    >
      <stop stop-color="#27272A" stop-opacity="0" />
      <stop offset="1" stop-color="#27272A" />
    </linearGradient>
    <linearGradient
      id="w"
      x1="230.01"
      x2="230.01"
      y1="186.96"
      y2="110.19"
      gradientUnits="userSpaceOnUse"
    >
      <stop stop-color="#27272A" stop-opacity="0" />
      <stop offset="1" stop-color="#27272A" />
    </linearGradient>
    <linearGradient
      id="x"
      x1="153.2"
      x2="153.2"
      y1="164.59"
      y2="110.19"
      gradientUnits="userSpaceOnUse"
    >
      <stop stop-color="#27272A" stop-opacity="0" />
      <stop offset="1" stop-color="#27272A" />
    </linearGradient>
    <linearGradient
      id="y"
      x1="167.73"
      x2="167.73"
      y1="174.48"
      y2="110.19"
      gradientUnits="userSpaceOnUse"
    >
      <stop stop-color="#27272A" stop-opacity="0" />
      <stop offset="1" stop-color="#27272A" />
    </linearGradient>
    <linearGradient
      id="z"
      x1="-23.35"
      x2="91.34"
      y1="75.51"
      y2="75.51"
      gradientUnits="userSpaceOnUse"
    >
      <stop stop-opacity="0" />
      <stop offset=".5" stop-color="#8AB7FF" />
      <stop offset=".98" stop-opacity="0" />
    </linearGradient>
    <linearGradient
      id="A"
      x1="25.65"
      x2="98.04"
      y1="85.51"
      y2="85.51"
      gradientUnits="userSpaceOnUse"
    >
      <stop stop-opacity="0" />
      <stop offset=".5" stop-color="#8AB7FF" />
      <stop offset=".98" stop-opacity="0" />
    </linearGradient>
    <linearGradient
      id="B"
      x1="299.68"
      x2="227.29"
      y1="76.1"
      y2="76.1"
      gradientUnits="userSpaceOnUse"
    >
      <stop stop-opacity="0" />
      <stop offset=".5" stop-color="#8AB7FF" />
      <stop offset=".98" stop-opacity="0" />
    </linearGradient>
    <linearGradient
      id="C"
      x1="299.67"
      x2="227.28"
      y1="94.99"
      y2="94.99"
      gradientUnits="userSpaceOnUse"
    >
      <stop stop-opacity="0" />
      <stop offset=".5" stop-color="#8AB7FF" />
      <stop offset=".98" stop-opacity="0" />
    </linearGradient>
    <linearGradient
      id="D"
      x1="327.18"
      x2="270.19"
      y1="31.64"
      y2="64.54"
      gradientUnits="userSpaceOnUse"
    >
      <stop stop-opacity="0" />
      <stop offset=".5" stop-color="#8AB7FF" />
      <stop offset=".98" stop-opacity="0" />
    </linearGradient>
    <clipPath id="a"><path fill="#fff" d="M0 0h357.33v150H0z" /></clipPath>
    <clipPath id="e">
      <path fill="#fff" d="M150.56 43.94h50.33v50.33h-50.33z" />
    </clipPath>
    <filter
      id="b"
      width="107.11"
      height="107.11"
      x="122.17"
      y="15.55"
      color-interpolation-filters="sRGB"
      filterUnits="userSpaceOnUse"
    >
      <feFlood flood-opacity="0" result="BackgroundImageFix" />
      <feColorMatrix
        in="SourceAlpha"
        result="hardAlpha"
        values="0 0 0 0 0 0 0 0 0 0 0 0 0 0 0 0 0 0 127 0"
      />
      <feMorphology
        in="SourceAlpha"
        operator="dilate"
        radius="2.62"
        result="effect1_dropShadow_2970_19159"
      />
      <feOffset />
      <feGaussianBlur stdDeviation="4.92" />
      <feComposite in2="hardAlpha" operator="out" />
      <feColorMatrix values="0 0 0 0 0 0 0 0 0 0 0 0 0 0 0 0 0 0 0.5 0" />
      <feBlend
        in2="BackgroundImageFix"
        result="effect1_dropShadow_2970_19159"
      />
      <feBlend
        in="SourceGraphic"
        in2="effect1_dropShadow_2970_19159"
        result="shape"
      />
    </filter>
  </defs>
</svg>
