<svg xmlns="http://www.w3.org/2000/svg" width="184" height="176" fill="none" viewBox="0 0 184 176"><path fill="#fff" d="M91.667.005A90.75 90.75 0 0 0 0 89.755a89.92 89.92 0 0 0 62.667 85.25c4.583.833 6.25-1.917 6.25-4.334v-15.25c-25.5 5.417-30.917-12-30.917-12a23.83 23.83 0 0 0-10.167-13.166c-8.333-5.5.667-5.417.667-5.417a19.25 19.25 0 0 1 14 9.25 19.75 19.75 0 0 0 26.667 7.417 19.4 19.4 0 0 1 5.833-12c-20.333-2.25-41.667-9.917-41.667-44.334a34.58 34.58 0 0 1 9.25-24.25 31.5 31.5 0 0 1 .917-23.666s7.75-2.417 25 9.166a89 89 0 0 1 45.833 0c17.5-11.583 25-9.166 25-9.166a31.5 31.5 0 0 1 .917 23.666A34.58 34.58 0 0 1 150 85.005c0 34.5-21.5 42.083-41.667 44.333a20.83 20.83 0 0 1 6.25 16.667v24.583c0 2.917 1.667 5.25 6.25 4.333a89.99 89.99 0 0 0 62.5-85.166A90.75 90.75 0 0 0 91.667.005"/></svg>