<svg xmlns="http://www.w3.org/2000/svg" width="64" height="64" fill="none" viewBox="0 0 64 64"><g clip-path="url(#a)"><path fill="url(#b)" d="M20.34 3.66 3.66 20.34A12.5 12.5 0 0 0 0 29.18V59c0 2.76 2.24 5 5 5h29.82c3.32 0 6.49-1.32 8.84-3.66l16.68-16.68c2.34-2.34 3.66-5.52 3.66-8.84V5c0-2.76-2.24-5-5-5H29.18c-3.32 0-6.49 1.32-8.84 3.66"/><path fill="#000" d="M48 16H8v40h40z"/><path fill="#fff" d="M30 47H13v4h17z"/></g><defs><linearGradient id="b" x1=".85" x2="62.62" y1="62.72" y2="1.81" gradientUnits="userSpaceOnUse"><stop stop-color="#ff9419"/><stop offset=".43" stop-color="#ff021d"/><stop offset=".99" stop-color="#e600ff"/></linearGradient><clipPath id="a"><path fill="#fff" d="M0 0h64v64H0z"/></clipPath></defs></svg>