<svg width="358" height="150" viewBox="0 0 358 150" fill="none" xmlns="http://www.w3.org/2000/svg">
<rect width="358" height="150" fill="#F5F5F5"/>
<g id="Frame 427319385" clip-path="url(#clip0_445_17)">
<g id="Group 1000002013">
<g id="Group 1000002004">
<g id="Frame 1010102019" filter="url(#filter0_d_445_17)">
<rect x="134.637" y="28.0164" width="82.1742" height="82.1742" rx="16" fill="url(#paint0_linear_445_17)"/>
<rect x="134.895" y="28.2747" width="81.6576" height="81.6576" rx="15.7417" stroke="url(#paint1_linear_445_17)" stroke-width="0.516678"/>
</g>
</g>
<g id="Group 1000002020">
<path id="Vector 26" d="M364.812 169.762L354.189 151.364H219.583L197.524 129.305L197.524 110.196" stroke="url(#paint2_linear_445_17)"/>
<path id="Vector 27" d="M280.689 177.816L270.067 159.418L215.475 159.418L186.426 130.369V110.196" stroke="url(#paint3_linear_445_17)"/>
<path id="Vector 28" d="M282.373 186.963L271.751 168.565L211.834 168.564L175.305 130.364V110.192" stroke="url(#paint4_linear_445_17)"/>
<g id="Group 1000002005">
<path id="Vector 29" d="M142.97 164.593V147.67L153.13 130.363V110.19" stroke="url(#paint5_linear_445_17)"/>
<path id="Vector 30" d="M164.229 174.476V157.553L164.229 130.364V110.191" stroke="url(#paint6_linear_445_17)"/>
</g>
<rect id="Rectangle 34624281" x="151.581" y="110.191" width="3.09837" height="10.4674" fill="#27272A"/>
<rect id="Rectangle 34624282" x="162.68" y="110.191" width="3.09837" height="10.4674" fill="#27272A"/>
<rect id="Rectangle 34624283" x="173.778" y="110.191" width="3.09837" height="10.4674" fill="#27272A"/>
<rect id="Rectangle 34624284" x="184.876" y="110.191" width="3.09837" height="10.4674" fill="#27272A"/>
<rect id="Rectangle 34624285" x="195.975" y="110.191" width="3.09837" height="10.4674" fill="#27272A"/>
</g>
<g id="Group 1000002019">
<path id="Vector 11" d="M-14.6294 -32.7057L-4.00728 -14.3076H130.599L152.658 7.75122V27.9239" stroke="url(#paint7_linear_445_17)"/>
<path id="Vector 12" d="M-8.69986 -39.6967L1.92229 -21.2986L134.934 -21.2977L163.984 7.75187V27.9246" stroke="url(#paint8_linear_445_17)"/>
<path id="Vector 13" d="M72.5042 -46.844L83.1263 -28.446L146.26 -28.4398L175.31 7.75631V27.929" stroke="url(#paint9_linear_445_17)"/>
<path id="Vector 14" d="M157.585 -45.3615V-28.4387L186.635 7.75735V27.9301" stroke="url(#paint10_linear_445_17)"/>
<path id="Vector 15" d="M212.696 -31.0305L212.695 -3.64363L197.961 7.75762V27.9303" stroke="url(#paint11_linear_445_17)"/>
<rect id="Rectangle 34624286" x="150.995" y="17.5492" width="3.32567" height="10.4674" fill="#27272A"/>
<rect id="Rectangle 34624287" x="162.321" y="17.5492" width="3.32567" height="10.4674" fill="#27272A"/>
<rect id="Rectangle 34624288" x="173.647" y="17.5492" width="3.32567" height="10.4674" fill="#27272A"/>
<rect id="Rectangle 34624289" x="184.972" y="17.5428" width="3.32567" height="10.4674" fill="#27272A"/>
<rect id="Rectangle 34624290" x="196.298" y="17.5428" width="3.32567" height="10.4674" fill="#27272A"/>
</g>
<g id="Group 1000002008">
<g id="Group 1000002017">
<path id="Vector 21" d="M-54.2445 8.0001L13.6652 7.99995L82.7868 48.0514L134.631 48.0509" stroke="url(#paint12_linear_445_17)"/>
<path id="Vector 22" d="M-41.269 17.1899L5.32918 17.1899L82.7872 59.2097L134.63 59.2092" stroke="url(#paint13_linear_445_17)"/>
<path id="Vector 23" d="M-53.3481 69.9584L-13.0711 69.9585L82.7928 69.9585L134.637 69.9579" stroke="url(#paint14_linear_445_17)"/>
<path id="Vector 24" d="M34.112 161.283L34.112 105.572L59.9141 90.0615L134.636 90.0622" stroke="url(#paint15_linear_445_17)"/>
<path id="Vector 25" d="M-15.5263 173.536L25.1044 132.905L25.1044 98.5352L56.2442 80.6115L134.636 80.6121" stroke="url(#paint16_linear_445_17)"/>
<g id="Group 1000002007">
<rect id="Rectangle 34624291" x="134.624" y="46.5518" width="3.32567" height="10.4674" transform="rotate(90 134.624 46.5518)" fill="#27272A"/>
<rect id="Rectangle 34624292" x="134.624" y="57.6058" width="3.32567" height="10.4674" transform="rotate(90 134.624 57.6058)" fill="#27272A"/>
<rect id="Rectangle 34624293" x="134.624" y="67.7393" width="3.32567" height="10.4674" transform="rotate(90 134.624 67.7393)" fill="#27272A"/>
<rect id="Rectangle 34624294" x="134.631" y="78.9494" width="3.32567" height="10.4674" transform="rotate(90 134.631 78.9494)" fill="#27272A"/>
<rect id="Rectangle 34624295" x="134.631" y="88.3576" width="3.32567" height="10.4674" transform="rotate(90 134.631 88.3576)" fill="#27272A"/>
</g>
<path id="Vector 26_2" d="M-23.3481 69.9582L16.9289 69.9583L112.793 69.9583" stroke="url(#paint17_linear_445_17)"/>
<path id="Vector 28_2" d="M28.246 96.9795L56.116 80.548L98.0413 80.5481" stroke="url(#paint18_linear_445_17)"/>
</g>
<g id="Group 1000002018">
<path id="Vector 16" d="M357.527 -132L339.129 -121.378L339.129 13.2287L268.661 48.2572L216.817 48.2568" stroke="url(#paint19_linear_445_17)"/>
<path id="Vector 17" d="M364.518 -126.238L346.12 -115.616L346.119 17.3956L268.661 59.4154L216.817 59.4149" stroke="url(#paint20_linear_445_17)"/>
<path id="Vector 18" d="M371.664 -45.6109L353.266 -34.9887L353.26 28.1446L268.655 70.1645L216.811 70.1639" stroke="url(#paint21_linear_445_17)"/>
<path id="Vector 19" d="M370.182 132.286L353.26 132.286L268.655 90.2669L216.811 90.2675" stroke="url(#paint22_linear_445_17)"/>
<path id="Vector 20" d="M370.182 80.8172L353.26 80.8172L268.655 80.8172L216.811 80.8178" stroke="url(#paint23_linear_445_17)"/>
<g id="Group 1000002006">
<rect id="Rectangle 34624291_2" x="227.285" y="46.7582" width="3.32567" height="10.4674" transform="rotate(90 227.285 46.7582)" fill="#27272A"/>
<rect id="Rectangle 34624292_2" x="227.285" y="57.8124" width="3.32567" height="10.4674" transform="rotate(90 227.285 57.8124)" fill="#27272A"/>
<rect id="Rectangle 34624293_2" x="227.285" y="68.4843" width="3.32567" height="10.4674" transform="rotate(90 227.285 68.4843)" fill="#27272A"/>
<rect id="Rectangle 34624294_2" x="227.291" y="79.156" width="3.32567" height="10.4674" transform="rotate(90 227.291 79.156)" fill="#27272A"/>
<rect id="Rectangle 34624295_2" x="227.291" y="88.5641" width="3.32567" height="10.4674" transform="rotate(90 227.291 88.5641)" fill="#27272A"/>
</g>
<path id="Vector 29_2" d="M299.841 54.8879L269.216 70.1645L227.291 70.1644" stroke="url(#paint24_linear_445_17)"/>
<path id="Vector 31" d="M299.835 105.503L269.21 90.227L227.285 90.227" stroke="url(#paint25_linear_445_17)"/>
<path id="Vector 30_2" d="M323.209 29.0955L268.999 59.2562" stroke="url(#paint26_linear_445_17)"/>
</g>
</g>
</g>
</g>
<defs>
<filter id="filter0_d_445_17" x="122.171" y="15.5505" width="107.106" height="107.106" filterUnits="userSpaceOnUse" color-interpolation-filters="sRGB">
<feFlood flood-opacity="0" result="BackgroundImageFix"/>
<feColorMatrix in="SourceAlpha" type="matrix" values="0 0 0 0 0 0 0 0 0 0 0 0 0 0 0 0 0 0 127 0" result="hardAlpha"/>
<feMorphology radius="2.6244" operator="dilate" in="SourceAlpha" result="effect1_dropShadow_445_17"/>
<feOffset/>
<feGaussianBlur stdDeviation="4.92074"/>
<feComposite in2="hardAlpha" operator="out"/>
<feColorMatrix type="matrix" values="0 0 0 0 0 0 0 0 0 0 0 0 0 0 0 0 0 0 0.5 0"/>
<feBlend mode="normal" in2="BackgroundImageFix" result="effect1_dropShadow_445_17"/>
<feBlend mode="normal" in="SourceGraphic" in2="effect1_dropShadow_445_17" result="shape"/>
</filter>
<linearGradient id="paint0_linear_445_17" x1="175.724" y1="28.0164" x2="175.724" y2="110.191" gradientUnits="userSpaceOnUse">
<stop stop-color="#292929"/>
<stop offset="1" stop-color="#191919"/>
</linearGradient>
<linearGradient id="paint1_linear_445_17" x1="134.637" y1="69.1035" x2="216.811" y2="69.1035" gradientUnits="userSpaceOnUse">
<stop stop-color="white"/>
<stop offset="1" stop-color="#146DFF"/>
</linearGradient>
<linearGradient id="paint2_linear_445_17" x1="281.168" y1="169.762" x2="281.168" y2="110.196" gradientUnits="userSpaceOnUse">
<stop stop-color="#27272A" stop-opacity="0"/>
<stop offset="1" stop-color="#27272A"/>
</linearGradient>
<linearGradient id="paint3_linear_445_17" x1="233.558" y1="177.816" x2="233.558" y2="110.196" gradientUnits="userSpaceOnUse">
<stop stop-color="#27272A" stop-opacity="0"/>
<stop offset="1" stop-color="#27272A"/>
</linearGradient>
<linearGradient id="paint4_linear_445_17" x1="228.839" y1="186.963" x2="228.839" y2="110.192" gradientUnits="userSpaceOnUse">
<stop stop-color="#27272A" stop-opacity="0"/>
<stop offset="1" stop-color="#27272A"/>
</linearGradient>
<linearGradient id="paint5_linear_445_17" x1="148.05" y1="164.593" x2="148.05" y2="110.19" gradientUnits="userSpaceOnUse">
<stop stop-color="#27272A" stop-opacity="0"/>
<stop offset="1" stop-color="#27272A"/>
</linearGradient>
<linearGradient id="paint6_linear_445_17" x1="164.229" y1="174.476" x2="164.229" y2="110.191" gradientUnits="userSpaceOnUse">
<stop stop-color="#27272A" stop-opacity="0"/>
<stop offset="1" stop-color="#27272A"/>
</linearGradient>
<linearGradient id="paint7_linear_445_17" x1="69.0144" y1="-32.7057" x2="69.0144" y2="27.9239" gradientUnits="userSpaceOnUse">
<stop stop-color="#27272A" stop-opacity="0"/>
<stop offset="1" stop-color="#27272A"/>
</linearGradient>
<linearGradient id="paint8_linear_445_17" x1="77.642" y1="-39.6967" x2="77.642" y2="27.9246" gradientUnits="userSpaceOnUse">
<stop stop-color="#27272A" stop-opacity="0"/>
<stop offset="1" stop-color="#27272A"/>
</linearGradient>
<linearGradient id="paint9_linear_445_17" x1="123.907" y1="-46.8439" x2="123.907" y2="27.929" gradientUnits="userSpaceOnUse">
<stop stop-color="#27272A" stop-opacity="0"/>
<stop offset="1" stop-color="#27272A"/>
</linearGradient>
<linearGradient id="paint10_linear_445_17" x1="172.11" y1="-45.3615" x2="172.11" y2="27.9301" gradientUnits="userSpaceOnUse">
<stop stop-color="#27272A" stop-opacity="0"/>
<stop offset="1" stop-color="#27272A"/>
</linearGradient>
<linearGradient id="paint11_linear_445_17" x1="205.328" y1="-31.0304" x2="205.328" y2="27.9303" gradientUnits="userSpaceOnUse">
<stop stop-color="#27272A" stop-opacity="0"/>
<stop offset="1" stop-color="#27272A"/>
</linearGradient>
<linearGradient id="paint12_linear_445_17" x1="-54.2445" y1="28.0257" x2="134.631" y2="28.0257" gradientUnits="userSpaceOnUse">
<stop stop-color="#27272A" stop-opacity="0"/>
<stop offset="1" stop-color="#27272A"/>
</linearGradient>
<linearGradient id="paint13_linear_445_17" x1="-41.269" y1="38.1998" x2="134.63" y2="38.1998" gradientUnits="userSpaceOnUse">
<stop stop-color="#27272A" stop-opacity="0"/>
<stop offset="1" stop-color="#27272A"/>
</linearGradient>
<linearGradient id="paint14_linear_445_17" x1="-53.3481" y1="69.9582" x2="134.637" y2="69.9582" gradientUnits="userSpaceOnUse">
<stop stop-color="#27272A" stop-opacity="0"/>
<stop offset="1" stop-color="#27272A"/>
</linearGradient>
<linearGradient id="paint15_linear_445_17" x1="34.112" y1="125.672" x2="134.636" y2="125.672" gradientUnits="userSpaceOnUse">
<stop stop-color="#27272A" stop-opacity="0"/>
<stop offset="1" stop-color="#27272A"/>
</linearGradient>
<linearGradient id="paint16_linear_445_17" x1="-15.5263" y1="127.074" x2="134.636" y2="127.074" gradientUnits="userSpaceOnUse">
<stop stop-color="#27272A" stop-opacity="0"/>
<stop offset="1" stop-color="#27272A"/>
</linearGradient>
<linearGradient id="paint17_linear_445_17" x1="-23.3481" y1="69.958" x2="91.3447" y2="69.958" gradientUnits="userSpaceOnUse">
<stop stop-opacity="0"/>
<stop offset="0.495192" stop-color="#8AB7FF"/>
<stop offset="0.980769" stop-opacity="0"/>
</linearGradient>
<linearGradient id="paint18_linear_445_17" x1="25.6519" y1="79.958" x2="98.0413" y2="79.958" gradientUnits="userSpaceOnUse">
<stop stop-opacity="0"/>
<stop offset="0.495192" stop-color="#8AB7FF"/>
<stop offset="0.980769" stop-opacity="0"/>
</linearGradient>
<linearGradient id="paint19_linear_445_17" x1="357.527" y1="-41.8714" x2="216.817" y2="-41.8714" gradientUnits="userSpaceOnUse">
<stop stop-color="#27272A" stop-opacity="0"/>
<stop offset="1" stop-color="#27272A"/>
</linearGradient>
<linearGradient id="paint20_linear_445_17" x1="364.518" y1="-33.4115" x2="216.817" y2="-33.4115" gradientUnits="userSpaceOnUse">
<stop stop-color="#27272A" stop-opacity="0"/>
<stop offset="1" stop-color="#27272A"/>
</linearGradient>
<linearGradient id="paint21_linear_445_17" x1="371.664" y1="12.2768" x2="216.811" y2="12.2768" gradientUnits="userSpaceOnUse">
<stop stop-color="#27272A" stop-opacity="0"/>
<stop offset="1" stop-color="#27272A"/>
</linearGradient>
<linearGradient id="paint22_linear_445_17" x1="370.182" y1="111.277" x2="216.811" y2="111.277" gradientUnits="userSpaceOnUse">
<stop stop-color="#27272A" stop-opacity="0"/>
<stop offset="1" stop-color="#27272A"/>
</linearGradient>
<linearGradient id="paint23_linear_445_17" x1="370.182" y1="80.8175" x2="216.811" y2="80.8175" gradientUnits="userSpaceOnUse">
<stop stop-color="#27272A" stop-opacity="0"/>
<stop offset="1" stop-color="#27272A"/>
</linearGradient>
<linearGradient id="paint24_linear_445_17" x1="299.68" y1="70.7545" x2="227.291" y2="70.7545" gradientUnits="userSpaceOnUse">
<stop stop-opacity="0"/>
<stop offset="0.495192" stop-color="#8AB7FF"/>
<stop offset="0.980769" stop-opacity="0"/>
</linearGradient>
<linearGradient id="paint25_linear_445_17" x1="299.674" y1="89.6369" x2="227.285" y2="89.6369" gradientUnits="userSpaceOnUse">
<stop stop-opacity="0"/>
<stop offset="0.495192" stop-color="#8AB7FF"/>
<stop offset="0.980769" stop-opacity="0"/>
</linearGradient>
<linearGradient id="paint26_linear_445_17" x1="325.988" y1="26.3539" x2="268.999" y2="59.2564" gradientUnits="userSpaceOnUse">
<stop stop-opacity="0"/>
<stop offset="0.495192" stop-color="#8AB7FF"/>
<stop offset="0.980769" stop-opacity="0"/>
</linearGradient>
<clipPath id="clip0_445_17">
<rect width="357.333" height="150" fill="white"/>
</clipPath>
</defs>
</svg>
